<svg xmlns="http://www.w3.org/2000/svg" xmlns:xlink="http://www.w3.org/1999/xlink" viewBox="0 0 525 504.53"><defs><style>.cls-1,.cls-6{fill:none;}.cls-1,.cls-4,.cls-6{stroke:#1d1d1b;}.cls-1,.cls-4,.cls-6,.cls-7{stroke-miterlimit:10;}.cls-1{stroke-width:3px;}.cls-2{clip-path:url(#clip-path);}.cls-3{fill:#fff;}.cls-4,.cls-5,.cls-7{fill:#009b3e;}.cls-7{font-size:85px;stroke:#000;stroke-width:0.75px;font-family:CocaColaii, Coca Cola ii;}</style><clipPath id="clip-path" transform="translate(-53.89 -103.36)"><path class="cls-1" d="M323.83,109.15c100.27.65,177,87.07,175.64,179.77C498.3,367,441.9,435.06,369.23,455.39,285,479,217.74,427.61,212.85,423.75c-5.66-4.47-67.29-54.82-67-134.83C146.25,202.58,218.64,108.47,323.83,109.15Z"/></clipPath></defs><g id="Layer_1" data-name="Layer 1"><g class="cls-2"><image width="750" height="920" transform="translate(46.08 364.52) rotate(-90.15) scale(0.48)" xlink:href="zelije.jpg"/><path class="cls-3" d="M290.85,434.32c-11.74,0-25.25-21.15-27.84-25.39-11.35-18.58-14.16-37.3-16.08-54.88-2.59-23.76-1.8-50.47,2.34-79.39a427.83,427.83,0,0,1,12.26-57.2l-4.77,2.08-2.33,0a18.06,18.06,0,0,1-13-30.74l1.61-1.64,58.35-21.06a40.37,40.37,0,0,1,5.71-10.58,44.28,44.28,0,0,1,14.49-12,51.44,51.44,0,0,1,22.89-5.1c15,0,26.21,5.69,29.91,15.22C380,168,366,183.32,356.84,190.1c-.32.24-.66.49-1,.74h6.44a10.35,10.35,0,0,1,5.15-1.35h3.7a12,12,0,0,1,4.85-1.35l.74,0a12.18,12.18,0,0,1,4.55.9,10.15,10.15,0,0,1,5.09-1.78l.39,0h.41c5.48,0,9.22,3.54,11.1,10.52.65,2.4,1.34,5.76,2.13,10.26,1.47,8.45,3.28,21.22,5.39,38l.06.43v.44c.09,2.22-.14,9.58-6.19,14.89l10.13,57.16-.68,2.28c-.68,2.26-3.54,9.87-11.91,12.83a18.28,18.28,0,0,1-6.11,1,20.43,20.43,0,0,1-16.95-9.51l-1.34-2.09L371,302.92c-5,4.17-9.86,8.56-14.5,13.14-11.42,11.26-16.62,16.4-20,23.5-9.36,19.53-2.94,40.82-.82,47.82a82.42,82.42,0,0,0,17.2,30.69l-10.57,16.12A93.87,93.87,0,0,1,307,414.13a111.86,111.86,0,0,1-10-10.68c.9,3.88,2,7.23,2.84,10a61.25,61.25,0,0,1,1.78,6.37c1.55,8-2.94,11.68-4.95,12.9A11.1,11.1,0,0,1,290.85,434.32Zm4.95-231.86c-.63,4.54-1.11,9.11-1.44,13.65a213.63,213.63,0,0,0,0,30.36c.89,12.32,4.74,21.45,11.77,27.89,6.31,5.79,14.12,7.84,19.91,8.51a195.93,195.93,0,0,0,27.19-5.57c5.27-1.47,10.51-3.18,15.65-5.1l-.49-7.95a19.54,19.54,0,0,1-8.82-11.73l-.24-.89-4.64-60c-5.29,3.52-14.14,8-24.73,8a35.82,35.82,0,0,1-10.62-1.6,36.89,36.89,0,0,1-7.74-3.43Z" transform="translate(-53.89 -103.36)"/><path class="cls-4" d="M248.62,195.82l61-22a30.84,30.84,0,0,1,5.51-12.24,34.64,34.64,0,0,1,11-9.09c13.13-6.67,35.15-5,39,4.82,3.22,8.29-7.5,19.8-14.21,24.77-2,1.47-14.54,10.76-28.59,6.42a27.37,27.37,0,0,1-9.78-5.51l-25.84,12.84c-1,6.05-1.79,12.59-2.29,19.57a221.42,221.42,0,0,0,0,31.8c.77,10.74,3.85,24.34,15,34.54,9.3,8.53,20.5,10.63,26.8,11.21a205.64,205.64,0,0,0,53.15-14.11l-1.38-22a8.94,8.94,0,0,1-4.28-1.07,9.57,9.57,0,0,1-4.43-5.81c-1.3-16.82-2.49-32.28-3.79-49.1.68,0,1.27-1.35,2-1.35q6.51,28.27,8.25,28t-1.07-26.75a2.16,2.16,0,1,1,4.28-.31c3.56,21.16,5.42,27.16,6.42,27.06s1.62-6.26.92-27.29c.23-2,.53-3,.92-3q2.38-.18,8.71,50c0,.49.11,4.78-3.21,7.33a8.13,8.13,0,0,1-4.13,1.61l11,62.14c-.15.5-1.52,4.8-5.66,6.27-3.92,1.39-8.7-.36-11.31-4.44l-3.06-36.23a239.18,239.18,0,0,0-30,25.07c-11.91,11.75-17.86,17.63-22,26.3-11,23-3.75,47.17-1.38,55a92.93,92.93,0,0,0,19.26,34.39c-16.13-5.16-26.09-12.76-31.64-17.88-8.45-7.79-16-18.36-22.59-27.69-2.11-3-3.8-5.47-4.93-7.16A80.36,80.36,0,0,0,285,382.32c-1.25,24.29,9.2,40.16,6.42,41.85-2.29,1.39-12.06-7.65-19.87-20.45-10.18-16.66-12.78-33.31-14.68-50.75-1.25-11.47-3.33-37.53,2.3-76.89a419.3,419.3,0,0,1,18.49-76.59l-23.08,10.09a8.06,8.06,0,0,1-6-13.76Z" transform="translate(-53.89 -103.36)"/><path class="cls-3" d="M322.53,288.38a30.69,30.69,0,0,1-22.84-10.53,30.71,30.71,0,0,1,22.73-51.39c.55,0,1.1,0,1.65,0a31,31,0,0,1,29,32.06c-.58,15.87-13.81,29.24-29.5,29.81Z" transform="translate(-53.89 -103.36)"/><path class="cls-4" d="M301.82,254.83c1.23-10.3,10.61-19,21.7-18.34,11.31.62,20,10.6,19.57,21.7-.4,10.91-9.43,19.81-19.87,20.18C310.83,278.82,300.34,267.13,301.82,254.83Z" transform="translate(-53.89 -103.36)"/><path class="cls-5" d="M483.42,268.74c6.41,52.82-15.17,107.46-56.87,141.71C370,456.9,282.43,461,221.1,411.37c-57.5-46.51-75.89-127.19-45.86-193.07,26.16-57.39,84.52-93.76,145.38-94C403.06,123.94,473.86,190,483.42,268.74Zm-15.59,28c6.64-85.82-66.67-160.35-151.8-156.39-81.21,3.78-143.45,77.6-138,155.93,4.51,65.25,55.09,120.87,118.32,132.07C376.07,442.46,461.13,383.29,467.83,296.72Z" transform="translate(-53.89 -103.36)"/><path class="cls-6" d="M178,296.26c-5.41-78.33,56.83-152.15,138-155.93,85.13-4,158.44,70.57,151.8,156.39-6.7,86.57-91.76,145.74-171.52,131.61C233.08,417.13,182.5,361.51,178,296.26Z" transform="translate(-53.89 -103.36)"/><path class="cls-6" d="M483.42,268.74c-9.56-78.79-80.36-144.8-162.8-144.46-60.86.26-119.22,36.63-145.38,94-30,65.88-11.64,146.56,45.86,193.07C282.43,461,370,456.9,426.55,410.45,468.25,376.2,489.83,321.56,483.42,268.74Z" transform="translate(-53.89 -103.36)"/></g><path class="cls-1" d="M323.83,109.15c100.27.65,177,87.07,175.64,179.77C498.3,367,441.9,435.06,369.23,455.39,285,479,217.74,427.61,212.85,423.75c-5.66-4.47-67.29-54.82-67-134.83C146.25,202.58,218.64,108.47,323.83,109.15Z" transform="translate(-53.89 -103.36)"/></g><g id="Layer_2" data-name="Layer 2"><text class="cls-7" transform="translate(120.97 427.92)"><tspan xml:space="preserve">Cool  Alaise</tspan></text></g></svg>